<svg xmlns="http://www.w3.org/2000/svg" viewBox="0 0 24 24" width="1024" height="1024">
  <defs>
    <filter id="glow-purple" x="-50%" y="-50%" width="200%" height="200%">
      <feGaussianBlur stdDeviation="1" result="blur" />
      <feComponentTransfer in="blur" result="glow">
        <feFuncA type="linear" slope="1.5" />
      </feComponentTransfer>
      <feMerge>
        <feMergeNode in="glow" />
        <feMergeNode in="SourceGraphic" />
      </feMerge>
    </filter>
    <filter id="glow-amber" x="-50%" y="-50%" width="200%" height="200%">
      <feGaussianBlur stdDeviation="1" result="blur" />
      <feComponentTransfer in="blur" result="glow">
        <feFuncA type="linear" slope="1.5" />
      </feComponentTransfer>
      <feMerge>
        <feMergeNode in="glow" />
        <feMergeNode in="SourceGraphic" />
      </feMerge>
    </filter>
  </defs>
  <rect width="24" height="24" rx="5" fill="#09090b"/>
  <g stroke="#a1a1aa" stroke-width="1.75" fill="none" stroke-linecap="round" stroke-linejoin="round">
    <path d="M21 8a2 2 0 0 0-1-1.73l-7-4a2 2 0 0 0-2 0l-7 4A2 2 0 0 0 3 8v8a2 2 0 0 0 1 1.73l7 4a2 2 0 0 0 2 0l7-4A2 2 0 0 0 21 16Z"/>
    <path d="m3.3 7 8.7 5 8.7-5"/>
    <path d="M12 22V12"/>
  </g>
  <g transform="matrix(0.866, 0.5, 0, 1, 7.65, 14.5)">
    <text x="0" y="0" font-family="ui-sans-serif, system-ui, sans-serif" font-size="7" font-weight="bold" fill="#a1a1aa" text-anchor="middle" dominant-baseline="central">A</text>
  </g>
  <g transform="matrix(0.866, -0.5, 0, 1, 16.35, 14.5)">
    <text x="0" y="0" font-family="ui-serif, Georgia, serif" font-size="7" font-weight="bold" font-style="italic" fill="#c084fc" text-anchor="middle" dominant-baseline="central" filter="url(#glow-purple)">A</text>
  </g>
  <g transform="translate(12, 7) scale(1, 0.577) rotate(45)">
    <path d="M 0 -3.5 C 0 -1 1 0 3.5 0 C 1 0 0 1 0 3.5 C 0 1 -1 0 -3.5 0 C -1 0 0 -1 0 -3.5 Z" fill="#fbbf24" filter="url(#glow-amber)"/>
  </g>
</svg>